<svg width="14" height="13" viewBox="0 0 14 13" fill="none" xmlns="http://www.w3.org/2000/svg">
<path d="M7.4375 1.75206C5.28828 1.75206 3.46992 3.16026 2.85195 5.10167C3.7707 4.63682 4.80703 4.37706 5.90625 4.37706H8.3125C8.55313 4.37706 8.75 4.57393 8.75 4.81456C8.75 5.05518 8.55313 5.25206 8.3125 5.25206H7.875H5.90625C5.45234 5.25206 5.01211 5.30401 4.58828 5.39971C3.88008 5.56104 3.22109 5.84815 2.63594 6.23917C1.04727 7.29737 0 9.10479 0 11.1583V11.5958C0 11.9595 0.292578 12.2521 0.65625 12.2521C1.01992 12.2521 1.3125 11.9595 1.3125 11.5958V11.1583C1.3125 9.82667 1.87852 8.62901 2.78359 7.78956C3.325 9.85401 5.20352 11.3771 7.4375 11.3771H7.46484C11.077 11.3579 14 7.79776 14 3.40909C14 2.24425 13.7949 1.13682 13.423 0.138777C13.352 -0.0498947 13.0758 -0.0416915 12.9801 0.136043C12.466 1.09854 11.4488 1.75206 10.2812 1.75206H7.4375Z" fill="#339E48"/>
</svg>
