<svg width="12" height="12" viewBox="0 0 12 12" fill="none" xmlns="http://www.w3.org/2000/svg">
<g clip-path="url(#clip0_3198_1621)">
<path d="M4.125 0.5625C4.125 0.250781 3.87422 0 3.5625 0C3.25078 0 3 0.250781 3 0.5625V1.5C2.17266 1.5 1.5 2.17266 1.5 3H0.5625C0.250781 3 0 3.25078 0 3.5625C0 3.87422 0.250781 4.125 0.5625 4.125H1.5V5.4375H0.5625C0.250781 5.4375 0 5.68828 0 6C0 6.31172 0.250781 6.5625 0.5625 6.5625H1.5V7.875H0.5625C0.250781 7.875 0 8.12578 0 8.4375C0 8.74922 0.250781 9 0.5625 9H1.5C1.5 9.82734 2.17266 10.5 3 10.5V11.4375C3 11.7492 3.25078 12 3.5625 12C3.87422 12 4.125 11.7492 4.125 11.4375V10.5H5.4375V11.4375C5.4375 11.7492 5.68828 12 6 12C6.31172 12 6.5625 11.7492 6.5625 11.4375V10.5H7.875V11.4375C7.875 11.7492 8.12578 12 8.4375 12C8.74922 12 9 11.7492 9 11.4375V10.5C9.82734 10.5 10.5 9.82734 10.5 9H11.4375C11.7492 9 12 8.74922 12 8.4375C12 8.12578 11.7492 7.875 11.4375 7.875H10.5V6.5625H11.4375C11.7492 6.5625 12 6.31172 12 6C12 5.68828 11.7492 5.4375 11.4375 5.4375H10.5V4.125H11.4375C11.7492 4.125 12 3.87422 12 3.5625C12 3.25078 11.7492 3 11.4375 3H10.5C10.5 2.17266 9.82734 1.5 9 1.5V0.5625C9 0.250781 8.74922 0 8.4375 0C8.12578 0 7.875 0.250781 7.875 0.5625V1.5H6.5625V0.5625C6.5625 0.250781 6.31172 0 6 0C5.68828 0 5.4375 0.250781 5.4375 0.5625V1.5H4.125V0.5625ZM3.75 3H8.25C8.66484 3 9 3.33516 9 3.75V8.25C9 8.66484 8.66484 9 8.25 9H3.75C3.33516 9 3 8.66484 3 8.25V3.75C3 3.33516 3.33516 3 3.75 3ZM8.25 3.75H3.75V8.25H8.25V3.75Z" fill="#4CAF50"/>
</g>
<defs>
<clipPath id="clip0_3198_1621">
<path d="M0 0H12V12H0V0Z" fill="white"/>
</clipPath>
</defs>
</svg>
